<mxfile host="app.diagrams.net" modified="2023-04-17T10:06:16.224Z" agent="Mozilla/5.0 (X11; Linux x86_64; rv:102.0) Gecko/20100101 Firefox/102.0" etag="vSfJ6exYvSM362gft2PM" version="21.1.5" type="device">
  <diagram name="Página-1" id="AvLUnw90TaFhlQHaY8LK">
    <mxGraphModel dx="880" dy="483" grid="1" gridSize="10" guides="1" tooltips="1" connect="1" arrows="1" fold="1" page="1" pageScale="1" pageWidth="827" pageHeight="1169" math="0" shadow="0">
      <root>
        <mxCell id="0" />
        <mxCell id="1" parent="0" />
        <mxCell id="4d2zQpIDs25eRN6ht3no-1" value="&lt;div&gt;&lt;b&gt;python:2.7&lt;/b&gt;&lt;/div&gt;&lt;div&gt;&lt;b&gt;(Registro Externo)&lt;/b&gt;&lt;br&gt;&lt;/div&gt;" style="rounded=1;whiteSpace=wrap;html=1;fillColor=#fff2cc;strokeColor=#d6b656;" parent="1" vertex="1">
          <mxGeometry x="30" y="170" width="120" height="60" as="geometry" />
        </mxCell>
        <mxCell id="4d2zQpIDs25eRN6ht3no-6" value="&lt;div&gt;&lt;b&gt;Deployment&lt;br&gt;&lt;/b&gt;&lt;/div&gt;&lt;div&gt;&lt;b&gt;Build&lt;br&gt;&lt;/b&gt;&lt;/div&gt;&lt;div&gt;&lt;b&gt;PODS&lt;/b&gt;&lt;/div&gt;" style="rounded=1;whiteSpace=wrap;html=1;fillColor=#fff2cc;strokeColor=#d6b656;" parent="1" vertex="1">
          <mxGeometry x="640" y="250" width="120" height="60" as="geometry" />
        </mxCell>
        <mxCell id="4d2zQpIDs25eRN6ht3no-10" value="&lt;div align=&quot;left&quot;&gt;&lt;font size=&quot;1&quot;&gt;&lt;b style=&quot;font-size: 22px;&quot;&gt;ImageStream&lt;/b&gt;&lt;/font&gt;&lt;br&gt;&lt;/div&gt;" style="text;strokeColor=none;align=left;fillColor=none;html=1;verticalAlign=middle;whiteSpace=wrap;rounded=0;" parent="1" vertex="1">
          <mxGeometry x="30" y="110" width="60" height="30" as="geometry" />
        </mxCell>
        <mxCell id="UGCbJAfQarozqtcSAT-0-1" value="&lt;b&gt;ImageStream python&lt;/b&gt;" style="rounded=1;whiteSpace=wrap;html=1;fillColor=#fff2cc;strokeColor=#d6b656;labelPosition=center;verticalLabelPosition=top;align=center;verticalAlign=bottom;" vertex="1" parent="1">
          <mxGeometry x="343.5" y="170" width="140" height="260" as="geometry" />
        </mxCell>
        <mxCell id="UGCbJAfQarozqtcSAT-0-2" value="&lt;div&gt;&lt;b&gt;python:3.10&lt;/b&gt;&lt;/div&gt;&lt;div&gt;&lt;b&gt;(Registro Externo)&lt;/b&gt;&lt;br&gt;&lt;/div&gt;" style="rounded=1;whiteSpace=wrap;html=1;fillColor=#fff2cc;strokeColor=#d6b656;" vertex="1" parent="1">
          <mxGeometry x="30" y="270" width="120" height="60" as="geometry" />
        </mxCell>
        <mxCell id="UGCbJAfQarozqtcSAT-0-3" value="&lt;div&gt;&lt;b&gt;python:3.8&lt;/b&gt;&lt;/div&gt;&lt;div&gt;&lt;b&gt;(Registro Interno)&lt;/b&gt;&lt;br&gt;&lt;/div&gt;" style="rounded=1;whiteSpace=wrap;html=1;fillColor=#fff2cc;strokeColor=#d6b656;" vertex="1" parent="1">
          <mxGeometry x="30" y="370" width="120" height="60" as="geometry" />
        </mxCell>
        <mxCell id="UGCbJAfQarozqtcSAT-0-5" value="&lt;b&gt;Imágenes&lt;/b&gt;" style="text;strokeColor=none;align=center;fillColor=none;html=1;verticalAlign=middle;whiteSpace=wrap;rounded=0;" vertex="1" parent="1">
          <mxGeometry x="30" y="150" width="60" height="30" as="geometry" />
        </mxCell>
        <mxCell id="UGCbJAfQarozqtcSAT-0-9" value="" style="edgeStyle=orthogonalEdgeStyle;rounded=0;orthogonalLoop=1;jettySize=auto;html=1;entryX=1;entryY=0.5;entryDx=0;entryDy=0;" edge="1" parent="1" source="UGCbJAfQarozqtcSAT-0-6" target="4d2zQpIDs25eRN6ht3no-1">
          <mxGeometry relative="1" as="geometry">
            <mxPoint x="274" y="200" as="targetPoint" />
          </mxGeometry>
        </mxCell>
        <mxCell id="UGCbJAfQarozqtcSAT-0-6" value="&lt;div&gt;ImageStreamTag&lt;/div&gt;&lt;div&gt;python:2.7&lt;br&gt;&lt;/div&gt;" style="rounded=1;whiteSpace=wrap;html=1;fillColor=#dae8fc;strokeColor=#6c8ebf;" vertex="1" parent="1">
          <mxGeometry x="354" y="180" width="120" height="40" as="geometry" />
        </mxCell>
        <mxCell id="UGCbJAfQarozqtcSAT-0-11" value="" style="rounded=0;orthogonalLoop=1;jettySize=auto;html=1;entryX=1;entryY=0.5;entryDx=0;entryDy=0;" edge="1" parent="1" source="UGCbJAfQarozqtcSAT-0-7" target="4d2zQpIDs25eRN6ht3no-1">
          <mxGeometry relative="1" as="geometry">
            <mxPoint x="274" y="250" as="targetPoint" />
          </mxGeometry>
        </mxCell>
        <mxCell id="UGCbJAfQarozqtcSAT-0-7" value="&lt;div&gt;ImageStreamTag&lt;/div&gt;&lt;div&gt;python:antiguo&lt;/div&gt;" style="rounded=1;whiteSpace=wrap;html=1;fillColor=#dae8fc;strokeColor=#6c8ebf;" vertex="1" parent="1">
          <mxGeometry x="354" y="230" width="120" height="40" as="geometry" />
        </mxCell>
        <mxCell id="UGCbJAfQarozqtcSAT-0-18" value="" style="edgeStyle=orthogonalEdgeStyle;rounded=0;orthogonalLoop=1;jettySize=auto;html=1;entryX=1;entryY=0.5;entryDx=0;entryDy=0;" edge="1" parent="1" source="UGCbJAfQarozqtcSAT-0-12" target="UGCbJAfQarozqtcSAT-0-2">
          <mxGeometry relative="1" as="geometry">
            <mxPoint x="274" y="300" as="targetPoint" />
          </mxGeometry>
        </mxCell>
        <mxCell id="UGCbJAfQarozqtcSAT-0-12" value="&lt;div&gt;ImageStreamTag&lt;/div&gt;&lt;div&gt;python:3.10&lt;br&gt;&lt;/div&gt;" style="rounded=1;whiteSpace=wrap;html=1;fillColor=#dae8fc;strokeColor=#6c8ebf;" vertex="1" parent="1">
          <mxGeometry x="354" y="280" width="120" height="40" as="geometry" />
        </mxCell>
        <mxCell id="UGCbJAfQarozqtcSAT-0-20" value="" style="rounded=0;orthogonalLoop=1;jettySize=auto;html=1;entryX=1;entryY=0.5;entryDx=0;entryDy=0;" edge="1" parent="1" source="UGCbJAfQarozqtcSAT-0-13" target="UGCbJAfQarozqtcSAT-0-2">
          <mxGeometry relative="1" as="geometry">
            <mxPoint x="274" y="350" as="targetPoint" />
          </mxGeometry>
        </mxCell>
        <mxCell id="UGCbJAfQarozqtcSAT-0-13" value="&lt;div&gt;ImageStreamTag&lt;/div&gt;&lt;div&gt;python:latest&lt;/div&gt;" style="rounded=1;whiteSpace=wrap;html=1;fillColor=#dae8fc;strokeColor=#6c8ebf;" vertex="1" parent="1">
          <mxGeometry x="354" y="330" width="120" height="40" as="geometry" />
        </mxCell>
        <mxCell id="UGCbJAfQarozqtcSAT-0-16" value="" style="rounded=0;orthogonalLoop=1;jettySize=auto;html=1;entryX=1;entryY=0.5;entryDx=0;entryDy=0;" edge="1" parent="1" source="UGCbJAfQarozqtcSAT-0-14" target="UGCbJAfQarozqtcSAT-0-3">
          <mxGeometry relative="1" as="geometry">
            <mxPoint x="274" y="400" as="targetPoint" />
          </mxGeometry>
        </mxCell>
        <mxCell id="UGCbJAfQarozqtcSAT-0-14" value="&lt;div&gt;ImageStreamTag&lt;/div&gt;&lt;div&gt;python:3.8&lt;/div&gt;" style="rounded=1;whiteSpace=wrap;html=1;fillColor=#dae8fc;strokeColor=#6c8ebf;" vertex="1" parent="1">
          <mxGeometry x="354" y="380" width="120" height="40" as="geometry" />
        </mxCell>
        <mxCell id="UGCbJAfQarozqtcSAT-0-21" value="&lt;b&gt;Deploy&lt;/b&gt;" style="html=1;shadow=0;dashed=0;align=center;verticalAlign=middle;shape=mxgraph.arrows2.arrow;dy=0.6;dx=40;notch=0;fillColor=#ffe6cc;strokeColor=#d79b00;" vertex="1" parent="1">
          <mxGeometry x="484" y="250" width="136" height="70" as="geometry" />
        </mxCell>
      </root>
    </mxGraphModel>
  </diagram>
</mxfile>
